# xmcd
#
# Track frame offsets:
#	150
#	25385
#	46410
#	67827
#	118357
#	135015
#	156900
#	196517
#	217520
#	229645
#	246102
#
# Disc length: 3896 seconds
#
# Revision: 1
# Processed by: cddbd v1.5PL3 Copyright (c) Steve Scherf et al.
# Submitted via: CDex 1.50Beta5
#
DISCID=840f360b
DTITLE=まにきゅあ団 - ラジヲまにきゅあ1374KHz
DYEAR=1900
DGENRE=JPop
TTITLE0=いつもないリクエスト
TTITLE1=レーダーマン
TTITLE2=機械の王国
TTITLE3=まにきゅあ団のテーマ
TTITLE4=フォーマットライフ
TTITLE5=お姫様の悪戯
TTITLE6=残酷ロマンス
TTITLE7=ジャングルジムから降りられない
TTITLE8=ぷあぷあ(3rdライブ)
TTITLE9=機械の王国(3rdライブ)
TTITLE10=まにきゅあ団のテーマ(3rdライブ)
EXTD=TTRC-0009
EXTT0=
EXTT1=
EXTT2=
EXTT3=
EXTT4=
EXTT5=
EXTT6=
EXTT7=
EXTT8=
EXTT9=
EXTT10=
PLAYORDER=
